<?xml version="1.0" standalone="no"?>
<!DOCTYPE svg PUBLIC "-//W3C//DTD SVG 20010904//EN"
 "http://www.w3.org/TR/2001/REC-SVG-20010904/DTD/svg10.dtd">
<svg version="1.0" xmlns="http://www.w3.org/2000/svg"
 width="700.000000pt" height="700.000000pt" viewBox="0 0 700.000000 700.000000"
 preserveAspectRatio="xMidYMid meet">
<metadata>
Created by potrace 1.14, written by Peter Selinger 2001-2017
</metadata>
<g transform="translate(0.000000,700.000000) scale(0.100000,-0.100000)"
fill="#000000" stroke="none">
<path d="M0 5764 l0 -1236 28 18 c308 204 683 327 1168 383 182 22 525 32 718
21 791 -43 1373 -273 1834 -724 160 -157 241 -254 221 -267 -8 -5 -63 -34
-124 -65 -171 -88 -704 -368 -867 -456 l-147 -79 -77 66 c-249 218 -576 346
-955 375 -413 31 -750 -72 -952 -290 -183 -197 -267 -423 -267 -715 0 -556
310 -912 875 -1002 123 -20 438 -23 545 -5 288 48 492 136 625 271 l49 51
-562 0 -562 0 0 465 0 465 1230 0 1230 0 0 -1190 0 -1190 -507 2 -507 3 -57
480 c-31 264 -59 491 -60 505 -3 19 -11 5 -33 -55 -181 -505 -591 -836 -1174
-949 -572 -111 -1156 -21 -1580 242 -46 29 -85 52 -88 52 -2 0 -4 -211 -4
-470 l0 -470 3500 0 3500 0 0 2608 0 2609 -461 6 c-254 4 -466 4 -470 1 -5 -3
-9 -680 -9 -1505 l0 -1499 -715 0 -715 0 0 1506 0 1506 -337 -6 c-801 -15
-1302 -26 -1355 -32 l-58 -5 0 606 0 605 2060 0 2060 0 0 300 0 300 -3500 0
-3500 0 0 -1236z"/>
</g>
</svg>
